# xmcd
#
# Track frame offsets:
#	150
#	15019
#	27614
#	42167
#	54760
#	68068
#	81334
#	95138
#	109164
#	122366
#	135620
#	149323
#	162554
#	176381
#	190399
#	202268
#	216138
#	229394
#	244469
#	258023
#	271343
#	284508
#	298104
#	311710
#
# Disc length: 4337 seconds
#
# Revision: 1
# Processed by: cddbd v1.5.1PL0 Copyright (c) Steve Scherf et al.
# Submitted via: dBpowerAMP V4.0
#
DISCID=6c10ef18
DTITLE=Homer - The Iliad
DYEAR=1900
DGENRE=blues
TTITLE0=Book 16 j
TTITLE1=Book 16 k
TTITLE2=Book 16 l
TTITLE3=Book 16 m
TTITLE4=Book 16 n
TTITLE5=Book 16 o
TTITLE6=Book 16 p
TTITLE7=Book 16 q
TTITLE8=Book 16 r
TTITLE9=Book 16 s
TTITLE10=Book 17 a
TTITLE11=Book 17 b
TTITLE12=Book 17 c
TTITLE13=Book 17 d
TTITLE14=Book 17 e
TTITLE15=Book 17 f
TTITLE16=Book 17 g
TTITLE17=Book 17 h
TTITLE18=Book 17 i
TTITLE19=Book 17 j
TTITLE20=Book 17 k
TTITLE21=Book 17 l
TTITLE22=Book 17 m
TTITLE23=Book 17 n
EXTD=
EXTT0=
EXTT1=
EXTT2=
EXTT3=
EXTT4=
EXTT5=
EXTT6=
EXTT7=
EXTT8=
EXTT9=
EXTT10=
EXTT11=
EXTT12=
EXTT13=
EXTT14=
EXTT15=
EXTT16=
EXTT17=
EXTT18=
EXTT19=
EXTT20=
EXTT21=
EXTT22=
EXTT23=
PLAYORDER=
